# xmcd
#
# Track frame offsets: 
#        150
#        20559
#        40206
#        63746
#        81806
#        100343
#        123628
#        138077
#        158151
#        181949
#        201629
#        222436
#        243135
#        262760
#
# Disc length: 3845 seconds
#
# Revision: 2
# Processed by: cddbd v1.5.2PL0 Copyright (c) Steve Scherf et al.
# Submitted via: ExactAudioCopy v1.0b1
#
DISCID=c60f030e
DTITLE=馬怡靜 - 給我最愛
DYEAR=2004
DGENRE=Jazz
TTITLE0=情憑誰來定錯對
TTITLE1=是緣是債是場夢
TTITLE2=一生不變
TTITLE3=鐵塔凌雲
TTITLE4=雨絲情愁
TTITLE5=留給這世上我最愛的人
TTITLE6=失戀
TTITLE7=等
TTITLE8=當年情
TTITLE9=喜歡你
TTITLE10=世事何曾是絕對
TTITLE11=我是你好知音
TTITLE12=夕陽醉了
TTITLE13=Masquerade - 等
EXTD=YEAR: 2004
EXTT0=
EXTT1=
EXTT2=
EXTT3=
EXTT4=
EXTT5=
EXTT6=
EXTT7=
EXTT8=
EXTT9=
EXTT10=
EXTT11=
EXTT12=
EXTT13=
PLAYORDER=
